<?xml version="1.0" standalone="no"?>
<!DOCTYPE svg PUBLIC "-//W3C//DTD SVG 20010904//EN"
 "http://www.w3.org/TR/2001/REC-SVG-20010904/DTD/svg10.dtd">
<svg version="1.0" xmlns="http://www.w3.org/2000/svg"
 width="895.000000pt" height="611.000000pt" viewBox="0 0 895.000000 611.000000"
 preserveAspectRatio="xMidYMid meet">

<g transform="translate(0.000000,611.000000) scale(0.100000,-0.100000)"
 stroke="none">
<path d="M5340 5593 c-53 -6 -182 -31 -300 -59 -333 -80 -1478 -443 -1938
-615 -598 -225 -1045 -461 -1308 -693 l-67 -60 5 -91 c3 -57 11 -105 22 -125
9 -18 16 -36 16 -41 0 -4 -140 -78 -311 -164 l-311 -158 7 -36 c4 -20 18 -63
32 -96 14 -33 26 -68 26 -77 1 -10 6 -18 12 -18 28 0 34 -23 14 -52 -15 -21
-29 -28 -53 -28 -63 0 -142 -20 -271 -69 -71 -27 -138 -52 -149 -55 -15 -5
-16 -9 -6 -21 10 -12 3 -19 -42 -40 -29 -14 -81 -42 -116 -61 -56 -31 -63 -39
-60 -62 3 -23 9 -28 41 -32 52 -7 51 -22 -3 -40 -85 -28 -89 -43 -20 -69 53
-19 61 -43 29 -77 -12 -13 -20 -26 -18 -28 3 -3 58 -8 123 -12 99 -6 122 -10
139 -27 14 -14 28 -18 53 -14 42 7 44 -7 4 -28 -68 -35 -10 -27 76 11 28 12
69 26 90 30 l39 6 -44 -38 c-62 -55 -153 -114 -174 -114 -20 0 -37 -37 -37
-80 0 -16 -5 -32 -10 -35 -14 -9 -12 -50 4 -90 l15 -35 128 -1 c70 0 148 -4
173 -7 44 -7 45 -8 42 -41 -4 -38 1 -38 86 -7 33 12 48 14 63 5 l21 -11 -21
-22 c-34 -36 -25 -37 46 -5 175 79 363 135 678 203 88 19 174 37 190 41 17 3
-12 -16 -64 -44 -224 -121 -474 -306 -643 -476 -93 -92 -178 -203 -178 -230 0
-8 20 -15 53 -19 75 -10 83 -16 63 -54 -23 -45 -20 -51 19 -45 39 6 65 -9 65
-37 0 -11 -10 -20 -25 -24 -19 -5 -25 -13 -25 -32 0 -19 4 -25 14 -21 8 3 41
9 73 12 45 5 63 3 78 -9 17 -13 18 -17 5 -26 -8 -5 -27 -10 -42 -10 -15 0 -30
-5 -33 -10 -4 -6 5 -10 19 -10 38 0 32 -14 -15 -35 -23 -11 -53 -35 -67 -54
-15 -19 -35 -43 -44 -53 -34 -35 -62 -204 -38 -232 6 -8 9 -19 6 -24 -3 -5 12
-12 34 -16 25 -4 40 -12 40 -20 0 -8 8 -28 18 -45 14 -26 23 -31 55 -31 30 0
37 -4 37 -20 0 -15 -7 -20 -24 -20 -14 0 -28 -4 -31 -10 -3 -5 -21 -9 -38 -7
l-32 2 0 -52 c0 -50 1 -51 26 -46 16 3 30 -1 38 -11 8 -9 22 -16 33 -16 23 0
35 -27 19 -43 -19 -19 -13 -24 43 -30 72 -7 337 -98 367 -125 21 -21 30 -22
114 -17 392 25 443 31 603 67 104 24 104 38 0 38 -37 0 -69 4 -72 8 -7 12 162
66 299 97 197 44 497 96 670 116 237 27 346 47 450 81 50 16 111 31 136 32 25
2 60 11 78 20 118 61 663 175 976 205 57 5 106 16 134 29 25 12 59 22 77 22
43 0 120 16 220 46 70 21 81 27 77 44 -5 20 1 23 140 55 124 28 277 85 229 85
-7 0 -12 6 -12 14 0 9 16 17 43 21 159 25 308 64 250 65 -35 0 -28 11 35 56
81 59 129 82 211 101 61 15 71 20 71 39 0 22 51 74 73 74 7 0 18 4 26 9 12 8
11 12 -3 27 -17 17 -17 18 0 31 10 7 26 13 36 13 10 0 47 12 83 26 90 36 182
126 298 288 51 71 108 142 128 158 20 16 119 62 220 104 310 125 338 144 417
281 83 144 90 206 31 265 -20 20 -29 40 -29 61 0 18 -4 37 -8 44 -4 6 -41 14
-82 18 -87 8 -197 26 -327 56 -84 19 -93 23 -93 44 0 12 -3 36 -6 53 -6 29 -4
31 36 42 23 6 58 20 78 30 21 11 80 23 137 30 55 6 124 18 154 26 129 37 306
138 420 241 l54 49 -12 99 c-7 54 -10 122 -6 152 6 49 5 53 -14 53 -14 0 -22
8 -27 28 -13 58 -17 68 -47 117 -17 28 -32 52 -33 54 -6 7 -171 -35 -451 -115
-343 -98 -462 -124 -598 -130 l-100 -5 45 37 c178 148 276 288 287 411 l6 60
-33 6 c-18 4 -50 7 -72 7 -49 0 -111 31 -164 81 -36 35 -44 39 -79 34 -23 -3
-45 0 -53 8 -17 14 -125 15 -282 3 -86 -7 -112 -6 -142 7 -35 15 -36 16 -28
53 14 60 -6 101 -75 156 -59 48 -60 50 -61 102 -3 83 -87 233 -125 221 -26 -9
-49 11 -49 41 0 20 -5 24 -33 24 -18 0 -43 7 -55 16 -21 15 -29 15 -88 0 -35
-9 -110 -21 -166 -27 -161 -16 -451 -56 -713 -99 -312 -50 -508 -77 -620 -85
-49 -3 -100 -8 -112 -11 -13 -2 -23 -1 -23 4 0 12 166 75 425 163 295 99 461
158 557 199 l76 32 4 44 c2 24 2 64 0 89 l-4 45 -97 -2 c-53 0 -112 -3 -131
-5z m-1359 -1280 c75 -35 1468 -959 1517 -1006 18 -18 48 -61 65 -97 29 -59
32 -73 32 -160 0 -83 -3 -102 -27 -150 -15 -30 -46 -74 -70 -97 -51 -49 -1440
-975 -1513 -1009 -206 -95 -462 -10 -557 184 l-33 67 -3 980 c-2 673 1 996 8
1032 24 115 130 225 260 271 55 19 80 22 161 19 81 -3 106 -8 160 -34z"/>
<path d="M3840 3050 l0 -830 538 358 c295 197 577 385 626 416 l89 57 -599
400 c-329 220 -611 407 -626 415 l-28 15 0 -831z"/>
</g>
</svg>
