<?xml version="1.0" standalone="no"?>
<!DOCTYPE svg PUBLIC "-//W3C//DTD SVG 20010904//EN"
 "http://www.w3.org/TR/2001/REC-SVG-20010904/DTD/svg10.dtd">
<svg version="1.0" xmlns="http://www.w3.org/2000/svg"
 width="750.000000pt" height="518.000000pt" viewBox="0 0 750.000000 518.000000"
 preserveAspectRatio="xMidYMid meet">

<g transform="translate(0.000000,518.000000) scale(0.100000,-0.100000)"
 stroke="none">
<path d="M4515 4673 c-159 -18 -374 -64 -515 -108 -1001 -312 -1366 -436
-1705 -582 -263 -113 -498 -245 -662 -372 -135 -105 -132 -101 -124 -196 4
-44 13 -90 19 -102 15 -27 19 -24 -276 -173 l-224 -113 7 -36 c3 -20 17 -59
30 -88 13 -28 21 -54 18 -56 -2 -3 5 -8 16 -12 25 -8 25 -13 6 -40 -12 -14
-33 -21 -83 -26 -82 -8 -329 -96 -313 -112 10 -10 -35 -39 -131 -84 -21 -10
-41 -26 -44 -36 -8 -24 13 -47 42 -47 39 0 27 -15 -21 -28 -57 -15 -59 -38 -5
-59 42 -17 50 -33 25 -53 -8 -7 -15 -19 -15 -26 0 -14 12 -15 168 -18 15 -1
31 -7 35 -13 4 -7 25 -13 45 -13 l37 -1 -30 -25 c-29 -25 -29 -25 -5 -19 14 4
53 18 87 31 34 13 67 24 73 24 20 0 -82 -79 -132 -103 -34 -15 -50 -29 -53
-47 -3 -14 -11 -41 -17 -61 -10 -36 -5 -72 14 -96 7 -9 41 -13 103 -13 51 0
113 -3 139 -6 45 -7 47 -8 41 -35 -8 -34 -5 -34 56 -13 26 10 54 14 64 10 17
-6 17 -7 0 -26 -28 -31 -12 -34 42 -7 105 54 323 119 566 172 148 31 153 31
92 -1 -277 -147 -631 -448 -669 -570 -6 -19 -2 -22 45 -28 55 -8 54 -4 33 -76
-5 -21 -4 -23 7 -12 20 18 57 14 69 -8 9 -17 7 -22 -15 -30 -15 -6 -25 -17
-25 -30 0 -18 4 -20 42 -14 24 3 49 8 56 10 7 2 23 -1 34 -7 17 -9 18 -13 7
-20 -8 -5 -24 -9 -36 -9 -27 0 -31 -17 -5 -22 13 -3 11 -7 -13 -20 -40 -22
-99 -94 -114 -140 -13 -39 -18 -119 -9 -153 3 -14 15 -21 36 -23 20 -2 32 -9
32 -18 0 -31 32 -65 58 -62 14 2 27 -3 29 -9 3 -8 -4 -13 -16 -13 -11 0 -23
-5 -26 -10 -3 -6 -17 -7 -30 -4 -12 3 -25 1 -29 -4 -8 -14 5 -82 17 -82 17 0
87 -33 87 -41 0 -4 -4 -11 -10 -14 -21 -13 -8 -23 38 -30 67 -9 285 -85 296
-103 7 -12 34 -13 170 -8 88 4 197 11 241 17 111 14 256 49 249 60 -3 5 -33 9
-67 9 -44 0 -58 3 -47 10 61 41 521 136 820 171 168 19 276 41 369 74 24 8 57
15 73 15 16 0 42 7 57 15 36 18 358 99 476 119 50 9 161 25 248 36 87 11 168
25 180 32 12 6 58 17 102 25 127 21 215 50 215 71 0 14 22 23 109 44 136 33
223 68 195 79 -22 8 -26 7 130 39 91 18 147 40 103 40 -30 0 -19 14 46 58 62
42 138 72 183 72 17 0 23 6 26 27 2 21 13 33 43 48 22 11 42 21 44 22 2 2 -2
10 -9 19 -12 13 -11 17 1 25 8 5 21 9 30 9 9 0 48 16 87 35 79 40 129 89 218
218 98 141 113 152 298 222 132 49 214 88 256 123 20 17 55 68 83 119 56 107
61 155 22 201 -14 17 -25 40 -25 53 0 13 -4 29 -8 35 -4 6 -54 16 -112 23
-112 13 -281 47 -291 59 -4 4 -9 23 -13 42 -6 35 -5 35 52 59 59 24 97 33 220
51 122 17 282 98 390 197 l53 48 -7 128 c-5 92 -11 127 -20 127 -7 0 -16 15
-19 33 -4 17 -19 54 -34 80 l-26 49 -46 -6 c-25 -4 -172 -42 -328 -86 -296
-83 -419 -110 -511 -110 l-55 0 40 32 c68 54 150 142 178 189 15 25 34 76 44
113 19 79 15 86 -55 86 -49 0 -125 35 -161 74 -17 17 -35 26 -56 26 -18 0 -47
5 -65 11 -25 9 -64 9 -159 0 -75 -7 -138 -8 -156 -3 -28 8 -30 12 -35 67 -5
54 -8 60 -57 104 -46 42 -51 51 -55 97 -3 36 -16 69 -42 113 -32 52 -42 61
-67 61 -24 0 -29 4 -29 25 0 21 -5 25 -28 25 -15 0 -37 7 -49 15 -15 11 -28
12 -45 6 -13 -5 -64 -14 -113 -20 -350 -46 -477 -64 -676 -96 -279 -44 -449
-65 -514 -64 l-50 0 57 24 c31 13 185 66 341 119 156 52 322 112 369 131 92
39 98 46 98 131 0 59 -31 71 -145 57z m-445 -1058 l0 -295 218 -2 217 -3 3
-297 2 -298 -217 -2 -218 -3 -3 -313 c-1 -202 1 -320 8 -332 10 -18 24 -20
176 -22 l165 -3 90 -214 c49 -118 89 -223 89 -233 0 -25 -62 -92 -113 -121
-129 -75 -313 -112 -552 -111 -241 1 -402 33 -535 107 -171 95 -276 225 -332
409 -21 69 -22 95 -26 456 l-3 382 -135 0 -134 0 0 269 0 269 28 7 c54 13 148
65 204 112 112 93 192 229 222 377 19 91 27 107 62 135 26 20 37 21 405 21
l379 0 0 -295z"/>
<path d="M3607 3783 c-3 -10 -8 -40 -12 -68 -14 -106 -78 -251 -151 -347 -53
-68 -146 -141 -231 -180 l-63 -28 0 -170 0 -169 133 -3 132 -3 5 -425 5 -425
28 -78 c63 -179 171 -294 337 -360 162 -63 390 -62 565 4 68 25 135 66 135 83
0 11 -100 318 -106 325 -2 2 -32 -4 -67 -14 -44 -12 -90 -16 -144 -14 -97 5
-149 33 -182 101 -20 43 -21 57 -21 426 l0 382 220 0 220 0 0 195 0 195 -220
0 -220 0 0 295 0 295 -179 0 c-163 0 -180 -2 -184 -17z"/>
</g>
</svg>
